# Blender 5.1.2
# www.blender.org
mtllib donut.mtl
o 円
v -0.000000 0.000000 -1.000000
v 0.195090 0.000000 -0.980785
v -0.000000 0.000000 -0.500000
v 0.097545 0.000000 -0.490393
v -0.382683 0.000000 -0.923880
v -0.195090 0.000000 -0.980785
v -0.191342 0.000000 -0.461940
v -0.097545 0.000000 -0.490393
v -0.555570 0.000000 -0.831470
v -0.277785 0.000000 -0.415735
v -0.831470 0.000000 -0.555570
v -0.707107 0.000000 -0.707107
v -0.353553 0.000000 -0.353553
v -0.415735 0.000000 -0.277785
v -0.980785 0.000000 -0.195090
v -0.923880 0.000000 -0.382683
v -0.490393 0.000000 -0.097545
v -0.461940 0.000000 -0.191342
v -1.000000 0.000000 -0.000000
v -0.490393 0.000000 0.097545
v -0.500000 0.000000 -0.000000
v -0.923879 0.000000 0.382684
v -0.980785 0.000000 0.195090
v -0.461940 0.000000 0.191342
v -0.831470 0.000000 0.555570
v -0.353553 0.000000 0.353553
v -0.415735 0.000000 0.277785
v -0.707107 0.000000 0.707107
v -0.555570 0.000000 0.831470
v -0.191342 0.000000 0.461940
v -0.277785 0.000000 0.415735
v -0.382683 0.000000 0.923880
v -0.097545 0.000000 0.490393
v 0.000000 0.000000 1.000000
v -0.195090 0.000000 0.980785
v 0.000000 0.000000 0.500000
v 0.097545 0.000000 0.490393
v 0.382684 0.000000 0.923880
v 0.195090 0.000000 0.980785
v 0.191342 0.000000 0.461940
v 0.555570 0.000000 0.831469
v 0.277785 0.000000 0.415735
v 0.353553 0.000000 0.353553
v 0.707107 0.000000 0.707107
v 0.923880 0.000000 0.382683
v 0.831470 0.000000 0.555570
v 0.461940 0.000000 0.191342
v 0.415735 0.000000 0.277785
v 0.980785 0.000000 0.195090
v 0.490393 0.000000 0.097545
v 0.500000 0.000000 0.000000
v 0.980785 0.000000 -0.195090
v 1.000000 0.000000 0.000000
v 0.490393 0.000000 -0.097545
v 0.831469 0.000000 -0.555570
v 0.923879 0.000000 -0.382684
v 0.415735 0.000000 -0.277785
v 0.461940 0.000000 -0.191342
v 0.707107 0.000000 -0.707107
v 0.555570 0.000000 -0.831470
v 0.353553 0.000000 -0.353553
v 0.277785 0.000000 -0.415735
v 0.382683 0.000000 -0.923880
v 0.191342 0.000000 -0.461940
vn -0.0000 1.0000 -0.0000
vt 0.000000 0.000000
vt 1.000000 1.000000
vt 0.000000 0.999800
vt 1.000000 0.000000
s 0
usemtl Material
f 3/1/1 2/2/1 1/3/1
f 3/4/1 6/3/1 8/1/1
f 8/4/1 5/3/1 7/1/1
f 7/4/1 9/3/1 10/1/1
f 13/1/1 9/2/1 12/3/1
f 13/4/1 11/3/1 14/1/1
f 18/1/1 11/2/1 16/3/1
f 18/4/1 15/3/1 17/1/1
f 21/1/1 15/2/1 19/3/1
f 21/4/1 23/3/1 20/1/1
f 20/4/1 22/3/1 24/1/1
f 24/4/1 25/3/1 27/1/1
f 26/1/1 25/2/1 28/3/1
f 31/1/1 28/2/1 29/3/1
f 31/4/1 32/3/1 30/1/1
f 33/1/1 32/2/1 35/3/1
f 36/1/1 35/2/1 34/3/1
f 37/1/1 34/2/1 39/3/1
f 37/4/1 38/3/1 40/1/1
f 40/4/1 41/3/1 42/1/1
f 43/1/1 41/2/1 44/3/1
f 43/4/1 46/3/1 48/1/1
f 47/1/1 46/2/1 45/3/1
f 47/4/1 49/3/1 50/1/1
f 50/4/1 53/3/1 51/1/1
f 54/1/1 53/2/1 52/3/1
f 54/4/1 56/3/1 58/1/1
f 57/1/1 56/2/1 55/3/1
f 61/1/1 55/2/1 59/3/1
f 62/1/1 59/2/1 60/3/1
f 62/4/1 63/3/1 64/1/1
f 4/1/1 63/2/1 2/3/1
f 3/1/1 4/4/1 2/2/1
f 3/4/1 1/2/1 6/3/1
f 8/4/1 6/2/1 5/3/1
f 7/4/1 5/2/1 9/3/1
f 13/1/1 10/4/1 9/2/1
f 13/4/1 12/2/1 11/3/1
f 18/1/1 14/4/1 11/2/1
f 18/4/1 16/2/1 15/3/1
f 21/1/1 17/4/1 15/2/1
f 21/4/1 19/2/1 23/3/1
f 20/4/1 23/2/1 22/3/1
f 24/4/1 22/2/1 25/3/1
f 26/1/1 27/4/1 25/2/1
f 31/1/1 26/4/1 28/2/1
f 31/4/1 29/2/1 32/3/1
f 33/1/1 30/4/1 32/2/1
f 36/1/1 33/4/1 35/2/1
f 37/1/1 36/4/1 34/2/1
f 37/4/1 39/2/1 38/3/1
f 40/4/1 38/2/1 41/3/1
f 43/1/1 42/4/1 41/2/1
f 43/4/1 44/2/1 46/3/1
f 47/1/1 48/4/1 46/2/1
f 47/4/1 45/2/1 49/3/1
f 50/4/1 49/2/1 53/3/1
f 54/1/1 51/4/1 53/2/1
f 54/4/1 52/2/1 56/3/1
f 57/1/1 58/4/1 56/2/1
f 61/1/1 57/4/1 55/2/1
f 62/1/1 61/4/1 59/2/1
f 62/4/1 60/2/1 63/3/1
f 4/1/1 64/4/1 63/2/1
