# Blender 5.2.1 LTS
# www.blender.org
mtllib Field.mtl
o Circle
v 0.000000 -0.000002 -20.000000
v -1.960342 -0.000002 -19.903694
v -3.901806 -0.000001 -19.615705
v -5.805694 -0.000001 -19.138807
v -7.653670 -0.000001 -18.477591
v -9.427934 -0.000001 -17.638424
v -11.111404 -0.000001 -16.629393
v -12.687866 -0.000001 -15.460208
v -14.142136 -0.000001 -14.142136
v -15.460208 -0.000001 -12.687866
v -16.629393 -0.000001 -11.111404
v -17.638424 -0.000001 -9.427934
v -18.477591 -0.000001 -7.653670
v -19.138807 -0.000000 -5.805694
v -19.615705 -0.000000 -3.901806
v -19.903694 -0.000000 -1.960342
v -20.000000 0.000000 0.000000
v -19.903694 0.000000 1.960342
v -19.615705 0.000000 3.901806
v -19.138807 0.000000 5.805694
v -18.477591 0.000001 7.653670
v -17.638424 0.000001 9.427934
v -16.629393 0.000001 11.111404
v -15.460208 0.000001 12.687866
v -14.142136 0.000001 14.142136
v -12.687866 0.000001 15.460208
v -11.111404 0.000001 16.629393
v -9.427934 0.000001 17.638424
v -7.653670 0.000001 18.477591
v -5.805694 0.000001 19.138807
v -3.901806 0.000001 19.615705
v -1.960342 0.000002 19.903694
v 0.000000 0.000002 20.000000
v 1.960342 0.000002 19.903694
v 3.901806 0.000001 19.615705
v 5.805694 0.000001 19.138807
v 7.653670 0.000001 18.477591
v 9.427934 0.000001 17.638424
v 11.111404 0.000001 16.629393
v 12.687866 0.000001 15.460208
v 14.142136 0.000001 14.142136
v 15.460208 0.000001 12.687866
v 16.629393 0.000001 11.111404
v 17.638424 0.000001 9.427934
v 18.477591 0.000001 7.653670
v 19.138807 0.000000 5.805694
v 19.615705 0.000000 3.901806
v 19.903694 0.000000 1.960342
v 20.000000 0.000000 0.000000
v 19.903694 -0.000000 -1.960342
v 19.615705 -0.000000 -3.901806
v 19.138807 -0.000000 -5.805694
v 18.477591 -0.000001 -7.653670
v 17.638424 -0.000001 -9.427934
v 16.629393 -0.000001 -11.111404
v 15.460208 -0.000001 -12.687866
v 14.142136 -0.000001 -14.142136
v 12.687866 -0.000001 -15.460208
v 11.111404 -0.000001 -16.629393
v 9.427934 -0.000001 -17.638424
v 7.653670 -0.000001 -18.477591
v 5.805694 -0.000001 -19.138807
v 3.901806 -0.000001 -19.615705
v 1.960342 -0.000002 -19.903694
v 0.000000 0.007266 -20.000000
v -1.960342 0.007266 -19.903694
v -3.901806 0.007267 -19.615705
v -5.805694 0.007267 -19.138807
v -7.653670 0.007267 -18.477591
v -9.427934 0.007267 -17.638424
v -11.111404 0.007267 -16.629393
v -12.687866 0.007267 -15.460208
v -14.142136 0.007267 -14.142136
v -15.460208 0.007267 -12.687866
v -16.629393 0.007267 -11.111404
v -17.638424 0.007267 -9.427934
v -18.477591 0.007267 -7.653670
v -19.138807 0.007268 -5.805694
v -19.615705 0.007268 -3.901806
v -19.903694 0.007268 -1.960342
v -20.000000 0.007268 -0.000000
v -19.903694 0.007268 1.960342
v -19.615705 0.007268 3.901806
v -19.138807 0.007268 5.805694
v -18.477591 0.007269 7.653670
v -17.638424 0.007269 9.427934
v -16.629393 0.007269 11.111404
v -15.460208 0.007269 12.687866
v -14.142136 0.007269 14.142136
v -12.687866 0.007269 15.460208
v -11.111404 0.007269 16.629393
v -9.427934 0.007269 17.638424
v -7.653670 0.007269 18.477591
v -5.805694 0.007269 19.138807
v -3.901806 0.007269 19.615705
v -1.960342 0.007270 19.903694
v 0.000000 0.007270 20.000000
v 1.960342 0.007270 19.903694
v 3.901806 0.007269 19.615705
v 5.805694 0.007269 19.138807
v 7.653670 0.007269 18.477591
v 9.427934 0.007269 17.638424
v 11.111404 0.007269 16.629393
v 12.687866 0.007269 15.460208
v 14.142136 0.007269 14.142136
v 15.460208 0.007269 12.687866
v 16.629393 0.007269 11.111404
v 17.638424 0.007269 9.427934
v 18.477591 0.007269 7.653670
v 19.138807 0.007268 5.805694
v 19.615705 0.007268 3.901806
v 19.903694 0.007268 1.960342
v 20.000000 0.007268 -0.000000
v 19.903694 0.007268 -1.960342
v 19.615705 0.007268 -3.901806
v 19.138807 0.007268 -5.805694
v 18.477591 0.007267 -7.653670
v 17.638424 0.007267 -9.427934
v 16.629393 0.007267 -11.111404
v 15.460208 0.007267 -12.687866
v 14.142136 0.007267 -14.142136
v 12.687866 0.007267 -15.460208
v 11.111404 0.007267 -16.629393
v 9.427934 0.007267 -17.638424
v 7.653670 0.007267 -18.477591
v 5.805694 0.007267 -19.138807
v 3.901806 0.007267 -19.615705
v 1.960342 0.007266 -19.903694
vn -0.0000 -1.0000 -0.0000
vn -0.0000 1.0000 -0.0000
vn 0.2430 -0.0000 -0.9700
vn 0.3369 -0.0000 0.9415
vn -0.8032 -0.0000 -0.5957
vn 0.1467 -0.0000 -0.9892
vn 0.4276 -0.0000 0.9040
vn -0.8577 -0.0000 -0.5141
vn 0.0491 -0.0000 -0.9988
vn 0.5141 -0.0000 0.8577
vn -0.9040 -0.0000 -0.4276
vn 0.5957 -0.0000 0.8032
vn -0.9415 -0.0000 -0.3369
vn 0.6716 -0.0000 0.7410
vn -0.9700 -0.0000 -0.2430
vn 0.7410 -0.0000 0.6716
vn -0.9892 -0.0000 -0.1467
vn 0.8032 -0.0000 0.5957
vn -0.9988 -0.0000 -0.0491
vn 0.8577 -0.0000 0.5141
vn -0.9988 -0.0000 0.0491
vn 0.9040 -0.0000 0.4276
vn -0.9892 -0.0000 0.1467
vn 0.9415 -0.0000 0.3369
vn -0.9700 -0.0000 0.2430
vn 0.9700 -0.0000 0.2430
vn -0.9415 -0.0000 0.3369
vn 0.9892 -0.0000 0.1467
vn -0.9040 -0.0000 0.4276
vn 0.9988 -0.0000 0.0491
vn -0.8577 -0.0000 0.5141
vn 0.9988 -0.0000 -0.0491
vn -0.8032 -0.0000 0.5957
vn 0.9892 -0.0000 -0.1467
vn -0.7410 -0.0000 0.6716
vn 0.9700 -0.0000 -0.2430
vn -0.6716 -0.0000 0.7410
vn 0.9415 -0.0000 -0.3369
vn -0.5957 -0.0000 0.8032
vn 0.9040 -0.0000 -0.4276
vn -0.5141 -0.0000 0.8577
vn -0.0491 -0.0000 -0.9988
vn 0.8577 -0.0000 -0.5141
vn -0.4276 -0.0000 0.9040
vn -0.1467 -0.0000 -0.9892
vn 0.8032 -0.0000 -0.5957
vn -0.3369 -0.0000 0.9415
vn -0.2430 -0.0000 -0.9700
vn 0.7410 -0.0000 -0.6716
vn -0.2430 -0.0000 0.9700
vn -0.3369 -0.0000 -0.9415
vn 0.6716 -0.0000 -0.7410
vn -0.1467 -0.0000 0.9892
vn -0.4276 -0.0000 -0.9040
vn 0.5957 -0.0000 -0.8032
vn -0.0491 -0.0000 0.9988
vn -0.5141 -0.0000 -0.8577
vn 0.5141 -0.0000 -0.8577
vn 0.0491 -0.0000 0.9988
vn -0.5957 -0.0000 -0.8032
vn 0.4276 -0.0000 -0.9040
vn 0.1467 -0.0000 0.9892
vn -0.6716 -0.0000 -0.7410
vn 0.3369 -0.0000 -0.9415
vn 0.2430 -0.0000 0.9700
vn -0.7410 -0.0000 -0.6716
vt 0.000000 0.000000
s 1
f 2/1/1 1/1/1 64/1/1 63/1/1 62/1/1 61/1/1 60/1/1 59/1/1 58/1/1 57/1/1 56/1/1 55/1/1 54/1/1 53/1/1 52/1/1 51/1/1 50/1/1 49/1/1 48/1/1 47/1/1 46/1/1 45/1/1 44/1/1 43/1/1 42/1/1 41/1/1 40/1/1 39/1/1 38/1/1 37/1/1 36/1/1 35/1/1 34/1/1 33/1/1 32/1/1 31/1/1 30/1/1 29/1/1 28/1/1 27/1/1 26/1/1 25/1/1 24/1/1 23/1/1 22/1/1 21/1/1 20/1/1 19/1/1 18/1/1 17/1/1 16/1/1 15/1/1 14/1/1 13/1/1 12/1/1 11/1/1 10/1/1 9/1/1 8/1/1 7/1/1 6/1/1 5/1/1 4/1/1 3/1/1
f 66/1/2 67/1/2 68/1/2 69/1/2 70/1/2 71/1/2 72/1/2 73/1/2 74/1/2 75/1/2 76/1/2 77/1/2 78/1/2 79/1/2 80/1/2 81/1/2 82/1/2 83/1/2 84/1/2 85/1/2 86/1/2 87/1/2 88/1/2 89/1/2 90/1/2 91/1/2 92/1/2 93/1/2 94/1/2 95/1/2 96/1/2 97/1/2 98/1/2 99/1/2 100/1/2 101/1/2 102/1/2 103/1/2 104/1/2 105/1/2 106/1/2 107/1/2 108/1/2 109/1/2 110/1/2 111/1/2 112/1/2 113/1/2 114/1/2 115/1/2 116/1/2 117/1/2 118/1/2 119/1/2 120/1/2 121/1/2 122/1/2 123/1/2 124/1/2 125/1/2 126/1/2 127/1/2 128/1/2 65/1/2
f 62/1/3 63/1/3 127/1/3 126/1/3
f 36/1/4 37/1/4 101/1/4 100/1/4
f 10/1/5 11/1/5 75/1/5 74/1/5
f 63/1/6 64/1/6 128/1/6 127/1/6
f 37/1/7 38/1/7 102/1/7 101/1/7
f 11/1/8 12/1/8 76/1/8 75/1/8
f 64/1/9 1/1/9 65/1/9 128/1/9
f 38/1/10 39/1/10 103/1/10 102/1/10
f 12/1/11 13/1/11 77/1/11 76/1/11
f 39/1/12 40/1/12 104/1/12 103/1/12
f 13/1/13 14/1/13 78/1/13 77/1/13
f 40/1/14 41/1/14 105/1/14 104/1/14
f 14/1/15 15/1/15 79/1/15 78/1/15
f 41/1/16 42/1/16 106/1/16 105/1/16
f 15/1/17 16/1/17 80/1/17 79/1/17
f 42/1/18 43/1/18 107/1/18 106/1/18
f 16/1/19 17/1/19 81/1/19 80/1/19
f 43/1/20 44/1/20 108/1/20 107/1/20
f 17/1/21 18/1/21 82/1/21 81/1/21
f 44/1/22 45/1/22 109/1/22 108/1/22
f 18/1/23 19/1/23 83/1/23 82/1/23
f 45/1/24 46/1/24 110/1/24 109/1/24
f 19/1/25 20/1/25 84/1/25 83/1/25
f 46/1/26 47/1/26 111/1/26 110/1/26
f 20/1/27 21/1/27 85/1/27 84/1/27
f 47/1/28 48/1/28 112/1/28 111/1/28
f 21/1/29 22/1/29 86/1/29 85/1/29
f 48/1/30 49/1/30 113/1/30 112/1/30
f 22/1/31 23/1/31 87/1/31 86/1/31
f 49/1/32 50/1/32 114/1/32 113/1/32
f 23/1/33 24/1/33 88/1/33 87/1/33
f 50/1/34 51/1/34 115/1/34 114/1/34
f 24/1/35 25/1/35 89/1/35 88/1/35
f 51/1/36 52/1/36 116/1/36 115/1/36
f 25/1/37 26/1/37 90/1/37 89/1/37
f 52/1/38 53/1/38 117/1/38 116/1/38
f 26/1/39 27/1/39 91/1/39 90/1/39
f 53/1/40 54/1/40 118/1/40 117/1/40
f 27/1/41 28/1/41 92/1/41 91/1/41
f 1/1/42 2/1/42 66/1/42 65/1/42
f 54/1/43 55/1/43 119/1/43 118/1/43
f 28/1/44 29/1/44 93/1/44 92/1/44
f 2/1/45 3/1/45 67/1/45 66/1/45
f 55/1/46 56/1/46 120/1/46 119/1/46
f 29/1/47 30/1/47 94/1/47 93/1/47
f 3/1/48 4/1/48 68/1/48 67/1/48
f 56/1/49 57/1/49 121/1/49 120/1/49
f 30/1/50 31/1/50 95/1/50 94/1/50
f 4/1/51 5/1/51 69/1/51 68/1/51
f 57/1/52 58/1/52 122/1/52 121/1/52
f 31/1/53 32/1/53 96/1/53 95/1/53
f 5/1/54 6/1/54 70/1/54 69/1/54
f 58/1/55 59/1/55 123/1/55 122/1/55
f 32/1/56 33/1/56 97/1/56 96/1/56
f 6/1/57 7/1/57 71/1/57 70/1/57
f 59/1/58 60/1/58 124/1/58 123/1/58
f 33/1/59 34/1/59 98/1/59 97/1/59
f 7/1/60 8/1/60 72/1/60 71/1/60
f 60/1/61 61/1/61 125/1/61 124/1/61
f 34/1/62 35/1/62 99/1/62 98/1/62
f 8/1/63 9/1/63 73/1/63 72/1/63
f 61/1/64 62/1/64 126/1/64 125/1/64
f 35/1/65 36/1/65 100/1/65 99/1/65
f 9/1/66 10/1/66 74/1/66 73/1/66
