# Blender 5.2.0 LTS
# www.blender.org
mtllib Camera.mtl
o Mic
v 0.374790 0.368836 0.277297
v 0.374790 0.480367 0.277297
v 0.374790 0.368836 -0.840466
v 0.374790 0.480367 -0.840467
v 0.486321 0.368836 0.277297
v 0.486321 0.480367 0.277297
v 0.486321 0.368836 -0.840466
v 0.486321 0.480367 -0.840467
vn -1.0000 -0.0000 -0.0000
vn -0.0000 -0.0000 -1.0000
vn 1.0000 -0.0000 -0.0000
vn -0.0000 -0.0000 1.0000
vn -0.0000 -1.0000 -0.0000
vn -0.0000 1.0000 -0.0000
vt 0.375000 0.000000
vt 0.625000 0.000000
vt 0.625000 0.250000
vt 0.375000 0.250000
vt 0.625000 0.500000
vt 0.375000 0.500000
vt 0.625000 0.750000
vt 0.375000 0.750000
vt 0.625000 1.000000
vt 0.375000 1.000000
vt 0.125000 0.500000
vt 0.125000 0.750000
vt 0.875000 0.500000
vt 0.875000 0.750000
s 1
usemtl mic
f 1/1/1 2/2/1 4/3/1 3/4/1
f 3/4/2 4/3/2 8/5/2 7/6/2
f 7/6/3 8/5/3 6/7/3 5/8/3
f 5/8/4 6/7/4 2/9/4 1/10/4
f 3/11/5 7/6/5 5/8/5 1/12/5
f 8/5/6 4/13/6 2/14/6 6/7/6
o Main
v -0.933920 -0.051517 0.122529
v -0.933920 0.033849 0.122529
v -0.119083 -0.051517 -0.138205
v -0.119083 0.033849 -0.138205
v -0.907904 -0.051517 0.203834
v -0.907904 0.033849 0.203834
v -0.093067 -0.051517 -0.056900
v -0.093067 0.033849 -0.056900
v -0.244713 -0.258069 0.624200
v -0.244713 0.258069 0.624200
v -0.244713 -0.258069 -0.296455
v -0.244713 0.258069 -0.296455
v 0.244713 -0.258069 0.624200
v 0.244713 0.258069 0.624200
v 0.244713 -0.258069 -0.296455
v 0.244713 0.258069 -0.296455
v -0.331302 -0.224241 -0.296331
v -0.331302 0.266111 -0.296331
v -0.246694 -0.161627 -0.463590
v -0.246694 0.203498 -0.463590
v 0.331302 -0.224241 -0.296331
v 0.331302 0.266111 -0.296331
v 0.246694 -0.161627 -0.463590
v 0.246694 0.203498 -0.463590
v -0.331302 0.266111 -0.526021
v -0.331302 -0.224241 -0.526021
v 0.331302 -0.224241 -0.526021
v 0.331302 0.266111 -0.526021
v -0.050605 0.486667 0.535063
v -0.050605 0.587876 0.535063
v -0.050605 0.486667 -0.473723
v -0.050605 0.587876 -0.473723
v 0.050605 0.486667 0.535063
v 0.050605 0.587876 0.535063
v 0.050605 0.486667 -0.473723
v 0.050605 0.587876 -0.473723
v -0.050605 0.343221 0.853012
v -0.050605 0.392386 0.934169
v 0.050605 0.392386 0.934169
v 0.050605 0.343221 0.853012
v 0.050605 0.000874 0.626853
v 0.050605 -0.100328 0.628072
v -0.050605 -0.100328 0.628072
v -0.050604 0.000874 0.626853
v -0.049834 0.141333 0.862242
v -0.051344 0.072528 0.942273
v 0.049834 0.070180 0.943156
v 0.051344 0.138985 0.863126
v -0.039055 0.236264 0.132519
v -0.039055 0.531535 0.023689
v -0.039055 0.209250 0.059229
v -0.039055 0.504522 -0.049600
v 0.039055 0.236264 0.132519
v 0.039055 0.531535 0.023689
v 0.039055 0.209250 0.059229
v 0.039055 0.504522 -0.049600
v -0.489442 0.364525 -0.185966
v -0.489442 0.497311 -0.185966
v -0.489442 0.364525 -0.523293
v -0.489442 0.497311 -0.523293
v 0.211436 0.364525 -0.185966
v 0.211436 0.497311 -0.185966
v 0.211435 0.364525 -0.523293
v 0.211435 0.497311 -0.523293
v 0.195408 0.401312 -0.314237
v 0.195408 0.460524 -0.314237
v 0.195408 0.401312 -0.411734
v 0.195408 0.460524 -0.411734
v 0.397983 0.401312 -0.314237
v 0.397983 0.460524 -0.314237
v 0.397983 0.401312 -0.411734
v 0.397983 0.460524 -0.411734
vn -0.3048 -0.0000 -0.9524
vn 0.9524 -0.0000 -0.3048
vn 0.3048 -0.0000 0.9524
vn -0.9524 -0.0000 0.3048
vn -0.0000 -1.0000 -0.0000
vn -0.0000 1.0000 -0.0000
vn -1.0000 -0.0000 -0.0000
vn -0.0000 -0.0000 -1.0000
vn 1.0000 -0.0000 -0.0000
vn -0.0000 -0.0000 1.0000
vn 0.5937 -0.0000 -0.8047
vn -0.0000 0.7061 -0.7081
vn -0.0000 -0.7061 -0.7081
vn -0.5937 -0.0000 -0.8047
vn -0.0000 0.8981 0.4399
vn -0.0988 -0.1261 0.9871
vn 0.0189 0.8621 -0.5064
vn 0.0244 0.8630 -0.5046
vn 0.0055 0.8598 -0.5107
vn -1.0000 0.0001 0.0021
vn -1.0000 -0.0008 -0.0037
vn -0.0000 -0.9115 -0.4112
vn -0.4529 -0.6954 -0.5579
vn -0.0202 -0.8766 0.4808
vn -0.0245 -0.8759 0.4818
vn -0.0043 -0.8789 0.4770
vn -0.9999 0.0038 -0.0127
vn -0.9999 0.0111 -0.0075
vn -1.0000 0.0023 -0.0029
vn 0.8383 -0.5221 0.1572
vn 1.0000 -0.0000 0.0024
vn 1.0000 -0.0023 0.0029
vn -0.0000 0.0120 0.9999
vn -0.0817 -0.8613 -0.5016
vn 0.9086 0.4170 0.0213
vn 0.0054 -0.0483 -0.9988
vn -0.5184 0.4619 0.7196
vn -0.0065 0.0274 0.9996
vn -0.0000 -0.3458 -0.9383
vn -0.0000 0.3458 0.9383
vn -0.0000 -0.9383 0.3458
vn -0.0000 0.9383 -0.3458
vn -0.0000 0.8587 -0.5124
vn -0.0000 -0.8795 0.4759
vn -1.0000 -0.0000 -0.0023
vt 0.625000 0.000000
vt 0.375000 0.250000
vt 0.375000 0.000000
vt 0.625000 0.250000
vt 0.375000 0.500000
vt 0.625000 0.500000
vt 0.375000 0.750000
vt 0.625000 0.750000
vt 0.375000 1.000000
vt 0.125000 0.750000
vt 0.125000 0.500000
vt 0.875000 0.750000
vt 0.875000 0.500000
vt 0.396710 0.271710
vt 0.603290 0.271710
vt 0.396710 0.478290
vt 0.603290 0.478290
vt 0.625000 1.000000
s 1
usemtl Camera
f 10/15/7 11/16/7 9/17/7
f 12/18/8 15/19/8 11/16/8
f 16/20/9 13/21/9 15/19/9
f 14/22/10 9/23/10 13/21/10
f 15/19/11 9/24/11 11/25/11
f 16/20/12 10/26/12 14/22/12
f 18/15/13 19/16/13 17/17/13
f 20/18/14 23/19/14 19/16/14
f 24/20/15 21/21/15 23/19/15
f 22/22/16 17/23/16 21/21/16
f 23/19/11 17/24/11 19/25/11
f 20/27/12 22/22/12 24/20/12
f 26/15/13 34/16/13 25/17/13
f 36/20/15 29/21/15 35/19/15
f 30/22/16 25/23/16 29/21/16
f 35/19/11 25/24/11 34/25/11
f 33/27/12 30/22/12 36/20/12
f 27/28/17 33/18/17 28/29/17
f 31/30/18 34/16/18 27/28/18
f 28/29/19 36/20/19 32/31/19
f 31/30/20 36/20/20 35/19/20
f 38/15/13 39/16/13 37/17/13
f 40/18/14 43/19/14 39/16/14
f 44/20/15 41/21/15 43/19/15
f 38/26/21 47/22/22 42/22/21
f 43/19/11 37/24/11 39/25/11
f 40/27/12 42/22/12 44/20/12
f 53/24/23 56/21/24 49/21/25
f 42/22/15 48/21/15 41/21/15
f 38/15/13 45/17/26 46/15/27
f 41/21/28 45/24/29 37/24/28
f 55/22/30 54/26/31 51/26/32
f 54/15/33 53/17/34 52/17/35
f 55/22/36 50/22/37 49/21/38
f 52/24/39 50/22/39 49/21/39
f 48/21/40 56/21/41 53/24/42
f 46/15/27 45/17/26 53/17/34
f 47/22/22 46/26/43 54/26/44
f 47/22/22 56/21/41 48/21/40
f 57/17/13 60/18/13 59/16/13
f 60/18/45 63/19/45 59/16/45
f 64/20/15 61/21/15 63/19/15
f 62/22/46 57/23/46 61/21/46
f 63/19/47 57/24/47 59/25/47
f 60/27/48 62/22/48 64/20/48
f 66/15/13 67/16/13 65/17/13
f 68/18/14 71/19/14 67/16/14
f 72/20/15 69/21/15 71/19/15
f 70/22/16 65/23/16 69/21/16
f 71/19/11 65/24/11 67/25/11
f 72/20/12 66/26/12 70/22/12
f 74/15/13 75/16/13 73/17/13
f 76/18/14 79/19/14 75/16/14
f 80/20/15 77/21/15 79/19/15
f 78/22/16 73/23/16 77/21/16
f 79/19/11 73/24/11 75/25/11
f 76/27/12 78/22/12 80/20/12
f 10/15/7 12/18/7 11/16/7
f 12/18/8 16/20/8 15/19/8
f 16/20/9 14/22/9 13/21/9
f 14/22/10 10/32/10 9/23/10
f 15/19/11 13/21/11 9/24/11
f 16/20/12 12/27/12 10/26/12
f 18/15/13 20/18/13 19/16/13
f 20/18/14 24/20/14 23/19/14
f 24/20/15 22/22/15 21/21/15
f 22/22/16 18/32/16 17/23/16
f 23/19/11 21/21/11 17/24/11
f 20/27/12 18/26/12 22/22/12
f 26/15/13 33/18/13 34/16/13
f 36/20/15 30/22/15 29/21/15
f 30/22/16 26/32/16 25/23/16
f 35/19/11 29/21/11 25/24/11
f 33/27/12 26/26/12 30/22/12
f 27/28/17 34/16/17 33/18/17
f 31/30/18 35/19/18 34/16/18
f 28/29/19 33/18/19 36/20/19
f 31/30/20 32/31/20 36/20/20
f 38/15/13 40/18/13 39/16/13
f 40/18/14 44/20/14 43/19/14
f 44/20/15 42/22/15 41/21/15
f 38/26/21 46/26/43 47/22/22
f 43/19/11 41/21/11 37/24/11
f 40/27/12 38/26/12 42/22/12
f 53/24/23 49/21/25 52/24/49
f 42/22/15 47/22/15 48/21/15
f 38/15/13 37/17/13 45/17/26
f 41/21/28 48/21/40 45/24/29
f 55/22/30 51/26/32 50/22/50
f 54/15/33 52/17/35 51/15/51
f 55/22/36 49/21/38 56/21/41
f 52/24/39 51/26/39 50/22/39
f 48/21/40 53/24/42 45/24/29
f 46/15/27 53/17/34 54/15/33
f 47/22/22 54/26/44 55/22/36
f 47/22/22 55/22/36 56/21/41
f 57/17/13 58/15/13 60/18/13
f 60/18/45 64/20/45 63/19/45
f 64/20/15 62/22/15 61/21/15
f 62/22/46 58/32/46 57/23/46
f 63/19/47 61/21/47 57/24/47
f 60/27/48 58/26/48 62/22/48
f 66/15/13 68/18/13 67/16/13
f 68/18/14 72/20/14 71/19/14
f 72/20/15 70/22/15 69/21/15
f 70/22/16 66/32/16 65/23/16
f 71/19/11 69/21/11 65/24/11
f 72/20/12 68/27/12 66/26/12
f 74/15/13 76/18/13 75/16/13
f 76/18/14 80/20/14 79/19/14
f 80/20/15 78/22/15 77/21/15
f 78/22/16 74/32/16 73/23/16
f 79/19/11 77/21/11 73/24/11
f 76/27/12 74/26/12 78/22/12
o Lens
v -0.246694 -0.161627 -0.463590
v -0.246694 0.203498 -0.463590
v 0.246694 -0.161627 -0.463590
v 0.246694 0.203498 -0.463590
vn -0.0000 -0.0000 -1.0000
vt 0.396710 0.271710
vt 0.603290 0.271710
vt 0.603290 0.478290
vt 0.396710 0.478290
s 1
usemtl Material
f 81/33/52 82/34/52 84/35/52 83/36/52
