# Blender 5.2.1 LTS
# www.blender.org
mtllib Snake.mtl
o Icosphere
v -0.596280 -2.699128 0.000000
v 2.434167 -0.796747 1.269932
v -1.184396 -0.796748 2.388151
v -2.754148 -0.796735 -0.333331
v -0.517730 -0.796749 -2.594161
v 2.022149 -0.796748 -1.809273
v 0.701987 1.714343 2.054811
v -1.837882 1.714342 1.269928
v -1.837882 1.714342 -1.269928
v 0.701987 1.714343 -2.054811
v 2.271741 1.714326 0.000000
v -0.482400 2.699129 -0.333330
v -1.137198 -2.343247 1.171300
v 1.022811 -2.612203 0.294719
v 0.254149 -1.150079 2.544720
v 2.832341 -0.881115 0.000000
v 1.416165 -2.027072 -1.390551
v -1.522726 -2.343238 -0.666662
v -2.466198 -1.150073 1.016225
v 0.196132 -2.343250 -1.583317
v -1.778323 -1.150077 -1.916655
v 1.367137 -1.150078 -2.200782
v 2.570385 0.350491 1.390557
v 2.729822 0.648637 -0.834065
v -0.596286 0.350492 2.754648
v 1.677634 0.648638 2.211406
v -2.938908 0.350491 0.311873
v -1.692985 0.648637 2.200800
v -1.220059 0.350491 -2.561891
v -2.723961 0.648635 -0.851217
v 2.184864 0.350492 -1.895223
v 0.009477 0.648638 -2.726893
v 1.480180 1.717178 1.710647
v -1.253260 1.717181 1.867445
v -2.254724 1.717175 -0.556492
v -0.140267 1.717181 -2.211383
v 2.168052 1.717175 -0.810211
v -0.196132 2.343250 1.583317
v 1.009634 2.612197 -0.333331
v -1.643918 2.343246 0.311873
v -0.819883 2.343247 -1.390551
v 1.137198 2.343247 -1.171300
v -0.184263 -2.699128 -0.539338
v 0.482400 -2.699129 -0.333330
v 0.482400 -2.699129 0.333330
v -0.184263 -2.699128 0.539338
v 2.022149 -0.796748 1.809273
v 1.653623 -1.363851 1.809272
v 1.837882 -1.714342 1.269928
v 2.320285 -1.363850 0.936595
v -1.298274 -1.363851 2.054814
v -0.701987 -1.714343 2.054811
v -0.219584 -1.363852 2.388147
v -0.517730 -0.796749 2.594161
v -2.456004 -1.363836 -0.539340
v -2.271741 -1.714326 0.000000
v -2.456004 -1.363836 0.539340
v -2.754148 -0.796735 0.333331
v -0.219584 -1.363852 -2.388147
v -0.701987 -1.714343 -2.054811
v -1.298274 -1.363851 -2.054814
v -1.184396 -0.796748 -2.388151
v 2.320285 -1.363850 -0.936595
v 1.837882 -1.714342 -1.269928
v 1.653623 -1.363851 -1.809272
v 2.434167 -0.796747 -1.269932
v 0.517730 0.796749 2.594161
v 1.184396 0.796748 2.388151
v 1.298274 1.363851 2.054814
v 0.219584 1.363852 2.388147
v -2.434167 0.796747 1.269932
v -2.022149 0.796748 1.809273
v -1.653623 1.363851 1.809272
v -2.320285 1.363850 0.936595
v -2.022149 0.796748 -1.809273
v -2.434167 0.796747 -1.269932
v -2.320285 1.363850 -0.936595
v -1.653623 1.363851 -1.809272
v 1.184396 0.796748 -2.388151
v 0.517730 0.796749 -2.594161
v 0.219584 1.363852 -2.388146
v 1.298274 1.363851 -2.054814
v 2.754148 0.796735 0.333331
v 2.754148 0.796735 -0.333331
v 2.456005 1.363836 0.539340
v 2.456005 1.363836 -0.539340
v -0.482400 2.699129 0.333330
v 0.184263 2.699128 0.539338
v 0.596280 2.699128 0.000000
v 0.184263 2.699128 -0.539338
v -0.952933 -2.027073 1.710641
v -0.286270 -2.027074 1.916649
v 0.196132 -2.343250 1.583317
v 0.021350 -2.612205 1.016218
v -0.645317 -2.612203 0.810208
v 1.828183 -2.027071 0.851214
v 0.610794 -2.612204 0.834060
v 0.819883 -2.343247 1.390551
v 1.416165 -2.027072 1.390551
v 1.643918 -2.343246 0.311872
v 1.253260 -1.717181 1.867445
v 0.647497 -2.015328 1.895200
v 0.140267 -1.717181 2.211384
v 1.367137 -1.150078 2.200782
v 0.875256 -0.881122 2.561873
v 2.623251 -1.150072 -0.556491
v 2.254724 -1.717175 -0.556492
v 2.095288 -2.015321 0.000000
v 2.254724 -1.717175 0.556492
v 2.623251 -1.150072 0.556491
v 1.828183 -2.027071 -0.851214
v 1.022811 -2.612203 -0.294719
v 1.643918 -2.343246 -0.311872
v 0.610794 -2.612204 -0.834060
v 0.819883 -2.343247 -1.390551
v -2.005129 -2.027062 -0.333330
v -2.005129 -2.027062 0.333330
v -1.522726 -2.343238 0.666662
v -1.009634 -2.612197 0.333331
v -1.009634 -2.612197 -0.333331
v -1.480180 -1.717178 1.710647
v -1.695127 -2.015322 1.171302
v -2.168052 -1.717175 0.810211
v -1.778323 -1.150077 1.916655
v -2.291416 -0.881118 1.583325
v -0.286270 -2.027074 -1.916649
v -0.952933 -2.027073 -1.710641
v -1.137198 -2.343247 -1.171300
v -0.645317 -2.612204 -0.810208
v 0.021350 -2.612205 -1.016218
v -2.168052 -1.717175 -0.810211
v -1.695127 -2.015322 -1.171302
v -1.480180 -1.717178 -1.710647
v -2.466198 -1.150073 -1.016225
v -2.291416 -0.881118 -1.583325
v 0.140267 -1.717181 -2.211384
v 0.647497 -2.015328 -1.895200
v 1.253260 -1.717181 -1.867445
v 0.254149 -1.150079 -2.544720
v 0.875256 -0.881122 -2.561873
v 2.729822 0.648637 0.834065
v 2.914081 0.298146 0.294720
v 2.938908 -0.350491 0.311873
v 2.723961 -0.648635 0.851217
v 2.539697 -0.298144 1.390557
v 2.914081 0.298146 -0.294720
v 2.723961 -0.648635 -0.851217
v 2.938908 -0.350491 -0.311873
v 2.539697 -0.298144 -1.390557
v 2.570385 0.350491 -1.390557
v 0.009477 0.648638 2.726893
v 0.605763 0.298147 2.726890
v 0.596286 -0.350492 2.754648
v -0.009477 -0.648638 2.726893
v -0.605763 -0.298147 2.726889
v 1.195232 0.298146 2.544739
v 1.692985 -0.648637 2.200800
v 1.220059 -0.350491 2.561891
v 2.175387 -0.298147 1.867465
v 2.184864 0.350492 1.895223
v -2.723961 0.648635 0.851217
v -2.539697 0.298144 1.390557
v -2.570385 -0.350491 1.390557
v -2.729822 -0.648637 0.834065
v -2.914081 -0.298146 0.294720
v -2.175387 0.298147 1.867465
v -1.677634 -0.648638 2.211406
v -2.184864 -0.350492 1.895223
v -1.195232 -0.298146 2.544739
v -1.220059 0.350491 2.561891
v -1.692985 0.648637 -2.200800
v -2.175387 0.298147 -1.867465
v -2.184864 -0.350492 -1.895223
v -1.677634 -0.648638 -2.211406
v -1.195232 -0.298146 -2.544739
v -2.539697 0.298144 -1.390557
v -2.729822 -0.648637 -0.834065
v -2.570385 -0.350491 -1.390557
v -2.914081 -0.298146 -0.294720
v -2.938908 0.350491 -0.311873
v 1.677634 0.648638 -2.211406
v 1.195232 0.298146 -2.544739
v 1.220059 -0.350491 -2.561891
v 1.692985 -0.648637 -2.200800
v 2.175387 -0.298147 -1.867465
v 0.605763 0.298147 -2.726890
v -0.009477 -0.648638 -2.726893
v 0.596286 -0.350492 -2.754648
v -0.605763 -0.298147 -2.726889
v -0.596286 0.350492 -2.754648
v 2.466198 1.150073 1.016225
v 2.291416 0.881118 1.583325
v 1.778323 1.150077 1.916655
v 2.168052 1.717175 0.810211
v 1.695127 2.015322 1.171302
v -0.254149 1.150079 2.544720
v -0.875256 0.881122 2.561874
v -1.367137 1.150078 2.200782
v -0.140267 1.717181 2.211383
v -0.647497 2.015328 1.895200
v -2.623251 1.150072 0.556491
v -2.832341 0.881115 0.000000
v -2.623251 1.150072 -0.556491
v -2.254725 1.717175 0.556492
v -2.095288 2.015321 0.000000
v -1.367137 1.150078 -2.200782
v -0.875256 0.881122 -2.561873
v -0.254149 1.150079 -2.544720
v -1.253260 1.717181 -1.867445
v -0.647497 2.015328 -1.895200
v 1.778323 1.150077 -1.916655
v 2.291416 0.881118 -1.583325
v 2.466198 1.150073 -1.016225
v 1.480180 1.717178 -1.710647
v 1.695127 2.015322 -1.171302
v -0.021350 2.612204 1.016218
v 0.952933 2.027072 1.710641
v 1.137198 2.343247 1.171300
v 0.645317 2.612203 0.810208
v 0.286270 2.027074 1.916649
v 1.009634 2.612197 0.333331
v 2.005129 2.027062 0.333330
v 1.522726 2.343238 0.666662
v 2.005129 2.027062 -0.333330
v 1.522726 2.343238 -0.666662
v -1.022811 2.612203 0.294719
v -1.416165 2.027072 1.390551
v -0.819883 2.343247 1.390551
v -0.610794 2.612204 0.834060
v -1.828183 2.027071 0.851214
v -0.610794 2.612204 -0.834060
v -1.828183 2.027071 -0.851214
v -1.643918 2.343246 -0.311872
v -1.022811 2.612203 -0.294719
v -1.416165 2.027072 -1.390551
v 0.645317 2.612203 -0.810208
v 0.286270 2.027074 -1.916649
v -0.196132 2.343250 -1.583317
v -0.021350 2.612204 -1.016218
v 0.952933 2.027072 -1.710641
v -0.157351 -2.935009 -0.460565
v 1.855095 -2.262953 0.929986
v -0.926021 -2.262954 1.789413
v 2.206214 -0.962173 1.876281
v 0.794858 -2.777629 0.901068
v 2.807316 -1.315497 -0.489483
v 0.411943 -2.935010 -0.284646
v -0.356727 -2.262955 1.965333
v -2.075586 -2.262943 -0.284646
v 0.411943 -2.935010 0.284646
v -2.075586 -2.262943 0.284646
v -0.356727 -2.262955 -1.965333
v -0.157351 -2.935009 0.460565
v -0.926021 -2.262954 -1.789413
v 1.855095 -2.262953 -0.929986
v 1.891513 -1.446447 1.876280
v 2.492615 -1.799771 -0.489484
v 2.967712 0.566041 0.901073
v -1.291769 -1.446447 2.290695
v 1.259765 -1.799778 2.103326
v 0.015982 0.566042 2.962773
v -2.689875 -1.446432 -0.460566
v -1.714050 -1.799775 1.789420
v -2.957832 0.566038 0.929991
v -0.370627 -1.446449 -2.575343
v -2.319095 -1.799773 -0.997407
v -1.844028 0.566041 -2.387996
v 2.460806 -1.446446 -1.131061
v 0.280788 -1.799778 -2.405850
v 1.818156 0.566042 -2.405873
v 2.048860 -1.745748 1.415709
v 3.125059 0.266740 0.440502
v 1.406210 0.266740 2.690521
v -0.782573 -1.745750 2.290692
v 0.525177 0.266739 2.962770
v -2.255974 0.266739 2.103345
v -2.532523 -1.745733 0.000000
v -2.800480 0.266737 1.390557
v -2.800480 0.266737 -1.390557
v -0.782573 -1.745750 -2.290692
v -2.255974 0.266739 -2.103345
v 0.525177 0.266739 -2.962770
v 2.048860 -1.745748 -1.415709
v 1.406210 0.266740 -2.690521
v 3.125059 0.266740 -0.440502
v 0.625227 0.962174 2.751267
v 2.573695 1.315497 1.173332
v 0.086148 2.777629 1.173324
v -2.558055 0.962172 1.415712
v -0.378037 1.315503 2.690501
v -1.146700 2.777627 0.440500
v -2.206214 0.962173 -1.876281
v -2.807316 1.315497 0.489483
v -0.794858 2.777629 -0.901068
v 1.194525 0.962173 -2.575346
v -1.357008 1.315503 -2.387977
v 0.655445 2.777628 -0.997403
v 2.944474 0.962159 0.284647
v 1.968649 1.315501 -1.965339
v 1.199960 2.777621 0.284647
v 2.075586 2.262943 0.284646
v 0.356727 2.262954 -1.965333
v -0.411943 2.935010 0.284646
v 1.651824 2.541902 0.577456
v 2.420514 1.079783 -1.672530
v -0.067034 2.541914 -1.672523
v 2.573695 1.315497 -1.173332
v 0.625227 0.962174 -2.751267
v 0.086148 2.777629 -1.173324
v 0.926021 2.262953 -1.789413
v -1.855095 2.262953 -0.929986
v 0.157351 2.935009 0.460565
v 1.087886 2.541912 -1.315636
v -0.924568 1.079786 -2.706210
v -1.693230 2.541911 -0.456209
v -0.378037 1.315503 -2.690501
v -2.558055 0.962172 -1.415712
v -1.146700 2.777627 -0.440500
v -1.503254 2.262953 -1.390551
v -1.503254 2.262953 1.390551
v 0.509192 2.935009 0.000000
v -0.979459 2.541912 -1.390551
v -2.991916 1.079779 0.000000
v -0.979459 2.541912 1.390551
v -2.807316 1.315497 -0.489483
v -2.206214 0.962173 1.876281
v -0.794858 2.777629 0.901068
v -1.855095 2.262953 0.929986
v 0.926021 2.262953 1.789413
v 0.157351 2.935009 -0.460565
v -1.693230 2.541911 0.456209
v -0.924568 1.079786 2.706210
v 1.087886 2.541912 1.315636
v -1.357008 1.315503 2.387977
v 1.194525 0.962173 2.575346
v 0.655445 2.777628 0.997403
v 0.356727 2.262954 1.965333
v 2.075586 2.262943 -0.284646
v -0.411943 2.935010 -0.284646
v -0.067034 2.541914 1.672523
v 2.420514 1.079783 1.672530
v 1.651824 2.541902 -0.577456
v 1.968649 1.315501 1.965339
v 2.944474 0.962159 -0.284647
v 1.199960 2.777621 -0.284647
v 2.957832 -0.566038 -0.929991
v 1.714051 1.799775 -1.789420
v 2.689875 1.446432 0.460566
v 3.147795 -0.303592 -0.456210
v 1.428946 -0.303592 -2.706228
v 1.904014 2.062221 -1.315639
v 1.844028 -0.566041 -2.387996
v 0.370627 1.446449 -2.575342
v 2.319095 1.799772 -0.997407
v -0.015982 -0.566042 -2.962773
v -1.259765 1.799778 -2.103326
v 1.291769 1.446447 -2.290695
v 0.516499 -0.303592 -2.988191
v -2.264652 -0.303592 -2.128766
v -0.727284 2.062227 -2.128743
v -1.818156 -0.566042 -2.405872
v -2.460806 1.446446 -1.131061
v -0.280788 1.799778 -2.405850
v -2.967712 -0.566041 -0.901073
v -2.492615 1.799771 0.489484
v -1.891513 1.446447 -1.876280
v -2.828583 -0.303591 -1.390557
v -2.828583 -0.303591 1.390557
v -2.353486 2.062221 0.000000
v -2.967712 -0.566041 0.901073
v -1.891513 1.446447 1.876280
v -2.492615 1.799771 -0.489484
v -1.818156 -0.566042 2.405872
v -0.280788 1.799778 2.405850
v -2.460806 1.446446 1.131061
v -2.264652 -0.303592 2.128766
v 0.516499 -0.303592 2.988191
v -0.727284 2.062227 2.128743
v -0.015982 -0.566042 2.962773
v 1.291769 1.446447 2.290695
v -1.259765 1.799778 2.103326
v 1.844028 -0.566041 2.387996
v 2.319095 1.799772 0.997407
v 0.370627 1.446449 2.575343
v 1.428946 -0.303592 2.706228
v 3.147795 -0.303592 0.456210
v 1.904014 2.062221 1.315639
v 2.957832 -0.566038 0.929991
v 2.689875 1.446432 -0.460566
v 1.714051 1.799775 1.789420
v 2.255974 -0.266739 -2.103345
v -0.525177 -0.266739 -2.962770
v 0.782573 1.745750 -2.290692
v 2.264652 0.303592 -2.128766
v 0.727284 -2.062227 -2.128743
v -0.516499 0.303592 -2.988191
v 1.259765 -1.799778 -2.103326
v -1.291769 -1.446447 -2.290695
v 0.015982 0.566042 -2.962773
v -1.406210 -0.266740 -2.690521
v -3.125059 -0.266740 -0.440502
v -2.048860 1.745748 -1.415709
v -1.428946 0.303592 -2.706228
v -1.904014 -2.062221 -1.315639
v -3.147795 0.303592 -0.456210
v -1.714050 -1.799775 -1.789420
v -2.689875 -1.446432 0.460566
v -2.957832 0.566038 -0.929991
v -3.125059 -0.266740 0.440502
v -1.406210 -0.266740 2.690521
v -2.048860 1.745748 1.415709
v -3.147795 0.303592 0.456210
v -1.904014 -2.062221 1.315639
v -1.428946 0.303592 2.706228
v -2.319095 -1.799773 0.997407
v -0.370627 -1.446449 2.575343
v -1.844028 0.566041 2.387996
v -0.525177 -0.266739 2.962770
v 2.255974 -0.266739 2.103345
v 0.782573 1.745750 2.290692
v -0.516499 0.303592 2.988191
v 0.727284 -2.062227 2.128743
v 2.264652 0.303592 2.128766
v 0.280788 -1.799778 2.405850
v 2.460806 -1.446446 1.131061
v 1.818156 0.566042 2.405873
v 2.800480 -0.266737 1.390557
v 2.800480 -0.266737 -1.390557
v 2.532523 1.745733 0.000000
v 2.828583 0.303591 1.390557
v 2.353486 -2.062221 0.000000
v 2.828583 0.303591 -1.390557
v 2.492615 -1.799771 0.489484
v 1.891513 -1.446447 -1.876280
v 2.967712 0.566041 -0.901073
v 1.146700 -2.777627 -0.440500
v 0.378037 -1.315503 -2.690501
v 2.558055 -0.962172 -1.415712
v 1.693230 -2.541911 -0.456209
v -1.087886 -2.541912 -1.315636
v 0.924568 -1.079786 -2.706210
v -0.655445 -2.777628 -0.997403
v -1.194525 -0.962173 -2.575346
v 1.357008 -1.315503 -2.387977
v -0.086148 -2.777629 -1.173324
v -2.573695 -1.315497 -1.173331
v -0.625227 -0.962174 -2.751267
v 0.067034 -2.541914 -1.672523
v -1.651824 -2.541902 0.577456
v -2.420514 -1.079782 -1.672530
v -1.199960 -2.777621 0.284647
v -2.944474 -0.962159 0.284647
v -1.968649 -1.315501 -1.965339
v -1.199960 -2.777621 -0.284647
v -1.968649 -1.315501 1.965339
v -2.944474 -0.962159 -0.284647
v -1.651824 -2.541902 -0.577456
v 0.067034 -2.541914 1.672523
v -2.420514 -1.079782 1.672530
v -0.086148 -2.777629 1.173324
v -0.625227 -0.962174 2.751267
v -2.573695 -1.315497 1.173332
v 2.807316 -1.315497 0.489483
v 0.794858 -2.777629 -0.901068
v 2.206214 -0.962173 -1.876281
v 2.991916 -1.079779 0.000000
v 0.979458 -2.541912 1.390551
v 0.979458 -2.541912 -1.390551
v 1.503254 -2.262953 1.390551
v -0.509192 -2.935009 0.000000
v 1.503254 -2.262953 -1.390551
v -0.655445 -2.777628 0.997403
v 1.357008 -1.315503 2.387977
v -1.194525 -0.962173 2.575346
v -1.087886 -2.541912 1.315636
v 1.693230 -2.541911 0.456209
v 0.924568 -1.079786 2.706210
v 1.146700 -2.777627 0.440500
v 2.558055 -0.962172 1.415712
v 0.378037 -1.315503 2.690501
vn 0.0974 -0.9440 0.3152
vn 0.6821 -0.6778 0.2745
vn -0.2558 -0.9468 0.1954
vn -0.2558 -0.9468 -0.1954
vn 0.0974 -0.9440 -0.3152
vn 0.8965 -0.3441 0.2792
vn 0.0235 -0.3304 0.9435
vn -0.8801 -0.3436 0.3277
vn -0.5553 -0.3357 -0.7609
vn 0.5155 -0.3350 -0.7887
vn 0.7879 -0.1297 0.6019
vn -0.2929 -0.1262 0.9478
vn -0.9913 -0.1320 -0.0000
vn -0.2929 -0.1262 -0.9478
vn 0.7879 -0.1297 -0.6019
vn 0.3921 0.6670 0.6335
vn -0.4531 0.6688 0.5894
vn -0.6821 0.6778 -0.2745
vn 0.0366 0.6617 -0.7488
vn 0.7065 0.6789 -0.1998
vn 0.2558 0.9468 -0.1954
vn 0.4726 0.8040 -0.3610
vn 0.3921 0.6670 -0.6335
vn -0.0974 0.9440 -0.3152
vn -0.1787 0.7960 -0.5783
vn -0.4531 0.6688 -0.5894
vn -0.3168 0.9485 -0.0000
vn -0.5878 0.8090 -0.0000
vn -0.6821 0.6778 0.2745
vn -0.0974 0.9440 0.3152
vn -0.1787 0.7960 0.5783
vn 0.0366 0.6617 0.7488
vn 0.2558 0.9468 0.1954
vn 0.4726 0.8040 0.3610
vn 0.7065 0.6789 0.1998
vn 0.8801 0.3436 -0.3277
vn 0.7796 0.1935 -0.5956
vn 0.5553 0.3357 -0.7609
vn -0.0235 0.3304 -0.9435
vn -0.2900 0.1884 -0.9383
vn -0.5155 0.3350 -0.7887
vn -0.8965 0.3441 -0.2792
vn -0.9804 0.1969 -0.0000
vn -0.8965 0.3441 0.2792
vn -0.5155 0.3350 0.7887
vn -0.2900 0.1884 0.9383
vn -0.0235 0.3304 0.9435
vn 0.5553 0.3357 0.7609
vn 0.7796 0.1935 0.5956
vn 0.8801 0.3436 0.3277
vn 0.2929 0.1262 -0.9478
vn 0.2900 -0.1884 -0.9383
vn 0.0235 -0.3304 -0.9435
vn -0.7879 0.1297 -0.6019
vn -0.7796 -0.1935 -0.5956
vn -0.8801 -0.3436 -0.3277
vn -0.7879 0.1297 0.6019
vn -0.7796 -0.1935 0.5956
vn -0.5553 -0.3357 0.7609
vn 0.2929 0.1262 0.9478
vn 0.2900 -0.1884 0.9383
vn 0.5155 -0.3350 0.7887
vn 0.9913 0.1320 -0.0000
vn 0.9804 -0.1969 -0.0000
vn 0.8965 -0.3441 -0.2792
vn 0.4531 -0.6688 -0.5894
vn 0.1787 -0.7960 -0.5783
vn -0.0366 -0.6617 -0.7488
vn -0.3921 -0.6670 -0.6335
vn -0.4726 -0.8040 -0.3610
vn -0.7065 -0.6789 -0.1998
vn -0.7065 -0.6789 0.1998
vn -0.4726 -0.8040 0.3610
vn -0.3921 -0.6670 0.6335
vn 0.6821 -0.6778 -0.2745
vn 0.5878 -0.8090 -0.0000
vn 0.3168 -0.9485 -0.0000
vn -0.0366 -0.6617 0.7488
vn 0.1787 -0.7960 0.5783
vn 0.4531 -0.6688 0.5894
vn 0.6004 -0.1909 -0.7766
vn 0.2784 0.3327 0.9010
vn -0.9444 -0.1959 -0.2641
vn -0.4422 -0.1327 0.8870
vn -0.1809 -0.5355 -0.8249
vn 0.6564 0.7524 0.0544
vn 0.9088 -0.1953 0.3688
vn -0.7470 0.3409 0.5707
vn -0.0506 -0.1873 -0.9810
vn -0.0506 -0.1873 0.9810
vn -0.7470 0.3409 -0.5707
vn 0.9088 -0.1953 -0.3688
vn -0.9444 -0.1959 0.2641
vn 0.2784 0.3327 -0.9010
vn 0.6004 -0.1909 0.7766
vn -0.3410 -0.9386 0.0535
vn 0.3767 0.4120 -0.8297
vn -0.0840 0.4706 0.8784
vn -0.1530 -0.9340 -0.3228
vn 0.8962 0.4259 0.1244
vn -0.8509 0.4880 0.1944
vn 0.2452 -0.9358 -0.2533
vn 0.1580 0.4095 0.8985
vn -0.4269 0.4749 -0.7696
vn 0.3054 -0.9374 0.1672
vn -0.7875 0.4221 0.4491
vn 0.5682 0.4783 -0.6696
vn -0.0566 -0.9330 0.3554
vn -0.6429 0.4178 -0.6420
vn 0.7933 0.4858 0.3669
vn 0.4100 -0.5659 -0.7153
vn 0.0967 0.9926 0.0739
vn -0.5231 -0.5690 0.6345
vn 0.7919 -0.5792 0.1934
vn -0.0369 0.9921 0.1195
vn -0.7462 -0.5772 -0.3318
vn 0.0676 -0.5611 0.8250
vn -0.1196 0.9928 -0.0000
vn 0.0676 -0.5611 -0.8250
vn -0.7462 -0.5772 0.3318
vn -0.0369 0.9921 -0.1195
vn 0.7919 -0.5792 -0.1934
vn -0.5231 -0.5690 -0.6345
vn 0.0967 0.9926 -0.0739
vn 0.4100 -0.5659 0.7153
vn 0.4959 -0.7454 0.4455
vn 0.3159 0.5374 -0.7820
vn -0.8787 0.1366 0.4574
vn -0.2473 -0.7382 0.6276
vn 0.8292 0.5536 0.0765
vn -0.6746 0.1345 -0.7259
vn -0.6564 -0.7524 -0.0544
vn 0.1809 0.5355 0.8249
vn 0.4422 0.1327 -0.8870
vn -0.1504 -0.7368 -0.6592
vn -0.7070 0.5485 0.4465
vn 0.9750 0.1378 0.1745
vn 0.5581 -0.7479 -0.3595
vn -0.6186 0.5453 -0.5657
vn 0.1368 0.1315 0.9818
vn 0.7470 -0.3409 -0.5707
vn -0.9088 0.1953 -0.3688
vn 0.0506 0.1873 0.9810
vn 0.8172 -0.3140 0.4833
vn -0.1787 -0.3040 -0.9357
vn -0.6239 0.6194 0.4766
vn 0.4959 -0.7454 -0.4455
vn -0.8787 0.1366 -0.4574
vn 0.3159 0.5374 0.7820
vn -0.2784 -0.3327 -0.9010
vn -0.6004 0.1909 0.7766
vn 0.9444 0.1959 0.2641
vn 0.6828 -0.3109 -0.6612
vn -0.9413 -0.3174 -0.1153
vn 0.2342 0.6088 0.7579
vn -0.2473 -0.7382 -0.6276
vn -0.6746 0.1345 0.7259
vn 0.8292 0.5536 -0.0765
vn -0.9381 -0.3464 -0.0000
vn 0.5144 0.1899 0.8363
vn 0.5144 0.1899 -0.8363
vn -0.3808 -0.3058 -0.8726
vn -0.3808 -0.3058 0.8726
vn 0.7796 0.6262 -0.0000
vn -0.6564 -0.7524 0.0544
vn 0.4422 0.1327 0.8870
vn 0.1809 0.5355 -0.8249
vn -0.2784 -0.3327 0.9010
vn 0.9444 0.1959 -0.2641
vn -0.6004 0.1909 -0.7766
vn -0.9413 -0.3174 0.1153
vn 0.6828 -0.3109 0.6612
vn 0.2342 0.6088 -0.7579
vn -0.1504 -0.7368 0.6592
vn 0.9750 0.1378 -0.1745
vn -0.7070 0.5485 -0.4465
vn 0.7470 -0.3409 0.5707
vn 0.0506 0.1873 -0.9810
vn -0.9088 0.1953 0.3688
vn -0.1787 -0.3040 0.9357
vn 0.8172 -0.3140 -0.4833
vn -0.6239 0.6194 -0.4766
vn 0.5581 -0.7479 0.3595
vn 0.1368 0.1315 -0.9818
vn -0.6186 0.5453 0.5657
vn -0.1580 -0.4095 -0.8985
vn -0.2452 0.9358 0.2533
vn 0.4269 -0.4749 0.7696
vn 0.1445 -0.9833 -0.1104
vn -0.5656 0.4993 -0.6563
vn 0.4157 0.4956 0.7626
vn -0.5682 -0.4783 -0.6696
vn -0.3054 0.9374 0.1672
vn 0.7875 -0.4221 0.4491
vn -0.8962 -0.4259 -0.1244
vn 0.1530 0.9340 0.3228
vn 0.8509 -0.4880 -0.1944
vn -0.0551 -0.9824 -0.1784
vn -0.7796 0.5066 0.3681
vn 0.8406 0.5091 -0.1849
vn -0.7933 -0.4858 0.3669
vn 0.0566 0.9330 0.3554
vn 0.6429 -0.4178 -0.6420
vn -0.3767 -0.4120 0.8297
vn 0.3410 0.9386 -0.0535
vn 0.0840 -0.4706 -0.8784
vn -0.1787 -0.9839 -0.0000
vn 0.0892 0.4913 0.8664
vn 0.0892 0.4913 -0.8664
vn 0.0840 -0.4706 0.8784
vn 0.3410 0.9386 0.0535
vn -0.3767 -0.4120 -0.8297
vn 0.6429 -0.4178 0.6420
vn 0.0566 0.9330 -0.3554
vn -0.7933 -0.4858 -0.3669
vn -0.0551 -0.9824 0.1784
vn 0.8406 0.5091 0.1849
vn -0.7796 0.5066 -0.3681
vn 0.8509 -0.4880 0.1944
vn 0.1530 0.9340 -0.3228
vn -0.8962 -0.4259 0.1244
vn 0.7875 -0.4221 -0.4491
vn -0.3054 0.9374 -0.1672
vn -0.5682 -0.4783 0.6696
vn 0.1445 -0.9833 0.1104
vn 0.4157 0.4956 -0.7626
vn -0.5656 0.4993 0.6563
vn 0.4269 -0.4749 -0.7696
vn -0.2452 0.9358 -0.2533
vn -0.1580 -0.4095 0.8985
vn 0.0369 -0.9921 -0.1195
vn -0.7919 0.5792 -0.1934
vn 0.7462 0.5772 0.3318
vn 0.7796 -0.5066 0.3681
vn -0.8406 -0.5091 -0.1849
vn 0.0551 0.9824 -0.1784
vn -0.1530 -0.9340 0.3228
vn -0.8509 0.4880 -0.1944
vn 0.8962 0.4259 -0.1244
vn -0.0967 -0.9926 -0.0739
vn -0.4100 0.5659 0.7153
vn 0.5231 0.5690 -0.6345
vn 0.5656 -0.4993 -0.6563
vn -0.4157 -0.4956 0.7626
vn -0.1445 0.9833 -0.1104
vn 0.2452 -0.9358 0.2533
vn -0.4269 0.4749 0.7696
vn 0.1580 0.4095 -0.8985
vn -0.0967 -0.9926 0.0739
vn 0.5231 0.5690 0.6345
vn -0.4100 0.5659 -0.7153
vn -0.4157 -0.4956 -0.7626
vn 0.5656 -0.4993 0.6563
vn -0.1445 0.9833 0.1104
vn 0.3054 -0.9374 -0.1672
vn 0.5682 0.4783 0.6696
vn -0.7875 0.4221 -0.4491
vn 0.0369 -0.9921 0.1195
vn 0.7462 0.5772 -0.3318
vn -0.7919 0.5792 0.1934
vn -0.8406 -0.5091 0.1849
vn 0.7796 -0.5066 -0.3681
vn 0.0551 0.9824 0.1784
vn -0.0566 -0.9330 -0.3554
vn 0.7933 0.4858 -0.3669
vn -0.6429 0.4178 0.6420
vn 0.1196 -0.9928 -0.0000
vn -0.0676 0.5611 -0.8250
vn -0.0676 0.5611 0.8250
vn -0.0892 -0.4913 0.8664
vn -0.0892 -0.4913 -0.8664
vn 0.1787 0.9839 -0.0000
vn -0.3410 -0.9386 -0.0535
vn -0.0840 0.4706 -0.8784
vn 0.3767 0.4120 0.8297
vn -0.8292 -0.5536 -0.0765
vn 0.2473 0.7382 -0.6276
vn 0.6746 -0.1345 0.7259
vn -0.2342 -0.6088 0.7579
vn -0.6828 0.3109 -0.6612
vn 0.9413 0.3174 -0.1153
vn -0.9750 -0.1378 0.1745
vn 0.1504 0.7368 -0.6592
vn 0.7070 -0.5485 0.4465
vn -0.3159 -0.5374 0.7820
vn -0.4959 0.7454 -0.4455
vn 0.8787 -0.1366 -0.4574
vn 0.6239 -0.6194 0.4766
vn -0.8172 0.3140 0.4833
vn 0.1787 0.3040 -0.9357
vn -0.1368 -0.1315 0.9818
vn -0.5581 0.7479 -0.3595
vn 0.6186 -0.5453 -0.5657
vn 0.6186 -0.5453 0.5657
vn -0.5581 0.7479 0.3595
vn -0.1368 -0.1315 -0.9818
vn 0.6239 -0.6194 -0.4766
vn 0.1787 0.3040 0.9357
vn -0.8172 0.3140 -0.4833
vn 0.8787 -0.1366 0.4574
vn -0.4959 0.7454 0.4455
vn -0.3159 -0.5374 -0.7820
vn -0.1809 -0.5355 0.8249
vn -0.4422 -0.1327 -0.8870
vn 0.6564 0.7524 -0.0544
vn 0.3808 0.3058 0.8726
vn -0.7796 -0.6262 -0.0000
vn 0.3808 0.3058 -0.8726
vn -0.5144 -0.1899 0.8363
vn -0.5144 -0.1899 -0.8363
vn 0.9381 0.3464 -0.0000
vn 0.7070 -0.5485 -0.4465
vn 0.1504 0.7368 0.6592
vn -0.9750 -0.1378 -0.1745
vn -0.2342 -0.6088 -0.7579
vn 0.9413 0.3174 0.1153
vn -0.6828 0.3109 0.6612
vn 0.6746 -0.1345 -0.7259
vn 0.2473 0.7382 0.6276
vn -0.8292 -0.5536 0.0765
vt 0.181819 0.000000
vt 0.227273 0.078731
vt 0.136365 0.078731
vt 0.272728 0.157461
vt 0.318182 0.078731
vt 0.363637 0.157461
vt 0.909091 0.000000
vt 0.954545 0.078731
vt 0.863636 0.078731
vt 0.727273 0.000000
vt 0.772727 0.078731
vt 0.681818 0.078731
vt 0.545455 0.000000
vt 0.590909 0.078731
vt 0.500000 0.078731
vt 0.318182 0.236191
vt 0.090910 0.157461
vt 0.181819 0.157461
vt 0.136365 0.236191
vt 0.818182 0.157461
vt 0.909091 0.157461
vt 0.863636 0.236191
vt 0.636364 0.157461
vt 0.727273 0.157461
vt 0.681818 0.236191
vt 0.454546 0.157461
vt 0.545455 0.157461
vt 0.500000 0.236191
vt 0.227273 0.236191
vt 0.045455 0.236191
vt 0.772727 0.236191
vt 0.590909 0.236191
vt 0.409092 0.236191
vt 0.181819 0.314921
vt 0.272728 0.314921
vt 0.227273 0.393651
vt 0.000000 0.314921
vt 0.090910 0.314921
vt 0.045455 0.393651
vt 0.727273 0.314921
vt 0.818182 0.314921
vt 0.772727 0.393651
vt 0.545455 0.314921
vt 0.636364 0.314921
vt 0.590909 0.393651
vt 0.363637 0.314921
vt 0.454546 0.314921
vt 0.409092 0.393651
vt 0.500000 0.393651
vt 0.454546 0.472382
vt 0.681818 0.393651
vt 0.636364 0.472382
vt 0.863636 0.393651
vt 0.818182 0.472382
vt 0.909091 0.314921
vt 0.136365 0.393651
vt 0.090910 0.472382
vt 0.318182 0.393651
vt 0.272728 0.472382
vt 0.954545 0.236191
vt 1.000000 0.157461
vt 0.409092 0.078731
vt 0.363637 0.000000
s 0
usemtl Material.001
f 241/1/1 242/2/1 243/3/1
f 244/4/2 245/5/2 246/6/2
f 247/7/3 248/8/3 249/9/3
f 250/10/4 251/11/4 252/12/4
f 253/13/5 254/14/5 255/15/5
f 256/4/6 257/6/6 258/16/6
f 259/17/7 260/18/7 261/19/7
f 262/20/8 263/21/8 264/22/8
f 265/23/9 266/24/9 267/25/9
f 268/26/10 269/27/10 270/28/10
f 271/4/11 272/16/11 273/29/11
f 274/17/12 275/19/12 276/30/12
f 277/20/13 278/22/13 279/31/13
f 280/23/14 281/25/14 282/32/14
f 283/26/15 284/28/15 285/33/15
f 286/34/16 287/35/16 288/36/16
f 289/37/17 290/38/17 291/39/17
f 292/40/18 293/41/18 294/42/18
f 295/43/19 296/44/19 297/45/19
f 298/46/20 299/47/20 300/48/20
f 301/48/21 302/49/21 303/50/21
f 304/48/22 305/47/22 306/49/22
f 307/47/23 308/43/23 309/49/23
f 310/45/24 311/51/24 312/52/24
f 313/45/25 314/44/25 315/51/25
f 316/44/26 317/40/26 318/51/26
f 319/42/27 320/53/27 321/54/27
f 322/42/28 323/41/28 324/53/28
f 325/41/29 326/55/29 327/53/29
f 328/39/30 329/56/30 330/57/30
f 331/39/31 332/38/31 333/56/31
f 334/38/32 335/34/32 336/56/32
f 337/36/33 338/58/33 339/59/33
f 340/36/34 341/35/34 342/58/34
f 343/35/35 344/46/35 345/58/35
f 346/33/36 347/47/36 348/46/36
f 349/33/37 350/28/37 351/47/37
f 352/28/38 353/43/38 354/47/38
f 355/32/39 356/44/39 357/43/39
f 358/32/40 359/25/40 360/44/40
f 361/25/41 362/40/41 363/44/41
f 364/31/42 365/41/42 366/40/42
f 367/31/43 368/22/43 369/41/43
f 370/22/44 371/55/44 372/41/44
f 373/30/45 374/38/45 375/37/45
f 376/30/46 377/19/46 378/38/46
f 379/19/47 380/34/47 381/38/47
f 382/29/48 383/35/48 384/34/48
f 385/29/49 386/16/49 387/35/49
f 388/16/50 389/46/50 390/35/50
f 391/28/51 392/32/51 393/43/51
f 394/28/52 395/27/52 396/32/52
f 397/27/53 398/23/53 399/32/53
f 400/25/54 401/31/54 402/40/54
f 403/25/55 404/24/55 405/31/55
f 406/24/56 407/20/56 408/31/56
f 409/22/57 410/60/57 411/55/57
f 412/22/58 413/21/58 414/60/58
f 415/21/59 416/61/59 417/60/59
f 418/19/60 419/29/60 420/34/60
f 421/19/61 422/18/61 423/29/61
f 424/18/62 425/4/62 426/29/62
f 427/16/63 428/33/63 429/46/63
f 430/16/64 431/6/64 432/33/64
f 433/6/65 434/26/65 435/33/65
f 436/15/66 437/27/66 438/26/66
f 439/15/67 440/14/67 441/27/67
f 442/14/68 443/23/68 444/27/68
f 445/12/69 446/24/69 447/23/69
f 448/12/70 449/11/70 450/24/70
f 451/11/71 452/20/71 453/24/71
f 454/9/72 455/21/72 456/20/72
f 457/9/73 458/8/73 459/21/73
f 460/8/74 461/61/74 462/21/74
f 463/6/75 464/62/75 465/26/75
f 466/6/76 467/5/76 468/62/76
f 469/5/77 470/63/77 471/62/77
f 472/3/78 473/18/78 474/17/78
f 475/3/79 476/2/79 477/18/79
f 478/2/80 479/4/80 480/18/80
f 242/2/81 241/1/81 43/1/81 96/2/81
f 243/3/82 242/2/82 96/2/82 91/3/82
f 241/1/83 243/3/83 91/3/83 43/1/83
f 245/5/84 244/4/84 47/4/84 97/5/84
f 246/6/85 245/5/85 97/5/85 106/6/85
f 244/4/86 246/6/86 106/6/86 47/4/86
f 248/8/87 247/7/87 44/7/87 92/8/87
f 249/9/88 248/8/88 92/8/88 116/9/88
f 247/7/89 249/9/89 116/9/89 44/7/89
f 251/11/90 250/10/90 45/10/90 117/11/90
f 252/12/91 251/11/91 117/11/91 126/12/91
f 250/10/92 252/12/92 126/12/92 45/10/92
f 254/14/93 253/13/93 46/13/93 127/14/93
f 255/15/94 254/14/94 127/14/94 111/15/94
f 253/13/95 255/15/95 111/15/95 46/13/95
f 257/6/96 256/4/96 48/4/96 107/6/96
f 258/16/97 257/6/97 107/6/97 141/16/97
f 256/4/98 258/16/98 141/16/98 48/4/98
f 260/18/99 259/17/99 51/17/99 101/18/99
f 261/19/100 260/18/100 101/18/100 151/19/100
f 259/17/101 261/19/101 151/19/101 51/17/101
f 263/21/102 262/20/102 55/20/102 121/21/102
f 264/22/103 263/21/103 121/21/103 161/22/103
f 262/20/104 264/22/104 161/22/104 55/20/104
f 266/24/105 265/23/105 59/23/105 131/24/105
f 267/25/106 266/24/106 131/24/106 171/25/106
f 265/23/107 267/25/107 171/25/107 59/23/107
f 269/27/108 268/26/108 63/26/108 136/27/108
f 270/28/109 269/27/109 136/27/109 181/28/109
f 268/26/110 270/28/110 181/28/110 63/26/110
f 272/16/111 271/4/111 49/4/111 142/16/111
f 273/29/112 272/16/112 142/16/112 156/29/112
f 271/4/113 273/29/113 156/29/113 49/4/113
f 275/19/114 274/17/114 52/17/114 152/19/114
f 276/30/115 275/19/115 152/19/115 166/30/115
f 274/17/116 276/30/116 166/30/116 52/17/116
f 278/22/117 277/20/117 56/20/117 162/22/117
f 279/31/118 278/22/118 162/22/118 176/31/118
f 277/20/119 279/31/119 176/31/119 56/20/119
f 281/25/120 280/23/120 60/23/120 172/25/120
f 282/32/121 281/25/121 172/25/121 186/32/121
f 280/23/122 282/32/122 186/32/122 60/23/122
f 284/28/123 283/26/123 64/26/123 182/28/123
f 285/33/124 284/28/124 182/28/124 146/33/124
f 283/26/125 285/33/125 146/33/125 64/26/125
f 287/35/126 286/34/126 67/34/126 191/35/126
f 288/36/127 287/35/127 191/35/127 216/36/127
f 286/34/128 288/36/128 216/36/128 67/34/128
f 290/38/129 289/37/129 71/37/129 196/38/129
f 291/39/130 290/38/130 196/38/130 226/39/130
f 289/37/131 291/39/131 226/39/131 71/37/131
f 293/41/132 292/40/132 75/40/132 201/41/132
f 294/42/133 293/41/133 201/41/133 231/42/133
f 292/40/134 294/42/134 231/42/134 75/40/134
f 296/44/135 295/43/135 79/43/135 206/44/135
f 297/45/136 296/44/136 206/44/136 236/45/136
f 295/43/137 297/45/137 236/45/137 79/43/137
f 299/47/138 298/46/138 83/46/138 211/47/138
f 300/48/139 299/47/139 211/47/139 221/48/139
f 298/46/140 300/48/140 221/48/140 83/46/140
f 302/49/141 301/48/141 222/48/141 237/49/141
f 303/50/142 302/49/142 237/49/142 87/50/142
f 301/48/143 303/50/143 87/50/143 222/48/143
f 305/47/144 304/48/144 223/48/144 212/47/144
f 306/49/145 305/47/145 212/47/145 238/49/145
f 304/48/146 306/49/146 238/49/146 223/48/146
f 308/43/147 307/47/147 213/47/147 80/43/147
f 309/49/148 308/43/148 80/43/148 239/49/148
f 307/47/149 309/49/149 239/49/149 213/47/149
f 311/51/150 310/45/150 240/45/150 232/51/150
f 312/52/151 311/51/151 232/51/151 88/52/151
f 310/45/152 312/52/152 88/52/152 240/45/152
f 314/44/153 313/45/153 42/45/153 207/44/153
f 315/51/154 314/44/154 207/44/154 233/51/154
f 313/45/155 315/51/155 233/51/155 42/45/155
f 317/40/156 316/44/156 208/44/156 76/40/156
f 318/51/157 317/40/157 76/40/157 234/51/157
f 316/44/158 318/51/158 234/51/158 208/44/158
f 320/53/159 319/42/159 235/42/159 227/53/159
f 321/54/160 320/53/160 227/53/160 89/54/160
f 319/42/161 321/54/161 89/54/161 235/42/161
f 323/41/162 322/42/162 41/42/162 202/41/162
f 324/53/163 323/41/163 202/41/163 228/53/163
f 322/42/164 324/53/164 228/53/164 41/42/164
f 326/55/165 325/41/165 203/41/165 72/55/165
f 327/53/166 326/55/166 72/55/166 229/53/166
f 325/41/167 327/53/167 229/53/167 203/41/167
f 329/56/168 328/39/168 230/39/168 217/56/168
f 330/57/169 329/56/169 217/56/169 90/57/169
f 328/39/170 330/57/170 90/57/170 230/39/170
f 332/38/171 331/39/171 40/39/171 197/38/171
f 333/56/172 332/38/172 197/38/172 218/56/172
f 331/39/173 333/56/173 218/56/173 40/39/173
f 335/34/174 334/38/174 198/38/174 68/34/174
f 336/56/175 335/34/175 68/34/175 219/56/175
f 334/38/176 336/56/176 219/56/176 198/38/176
f 338/58/177 337/36/177 220/36/177 224/58/177
f 339/59/178 338/58/178 224/58/178 12/59/178
f 337/36/179 339/59/179 12/59/179 220/36/179
f 341/35/180 340/36/180 38/36/180 192/35/180
f 342/58/181 341/35/181 192/35/181 225/58/181
f 340/36/182 342/58/182 225/58/182 38/36/182
f 344/46/183 343/35/183 193/35/183 84/46/183
f 345/58/184 344/46/184 84/46/184 39/58/184
f 343/35/185 345/58/185 39/58/185 193/35/185
f 347/47/186 346/33/186 147/33/186 214/47/186
f 348/46/187 347/47/187 214/47/187 85/46/187
f 346/33/188 348/46/188 85/46/188 147/33/188
f 350/28/189 349/33/189 148/33/189 183/28/189
f 351/47/190 350/28/190 183/28/190 215/47/190
f 349/33/191 351/47/191 215/47/191 148/33/191
f 353/43/192 352/28/192 184/28/192 81/43/192
f 354/47/193 353/43/193 81/43/193 37/47/193
f 352/28/194 354/47/194 37/47/194 184/28/194
f 356/44/195 355/32/195 187/32/195 209/44/195
f 357/43/196 356/44/196 209/44/196 82/43/196
f 355/32/197 357/43/197 82/43/197 187/32/197
f 359/25/198 358/32/198 188/32/198 173/25/198
f 360/44/199 359/25/199 173/25/199 210/44/199
f 358/32/200 360/44/200 210/44/200 188/32/200
f 362/40/201 361/25/201 174/25/201 77/40/201
f 363/44/202 362/40/202 77/40/202 36/44/202
f 361/25/203 363/44/203 36/44/203 174/25/203
f 365/41/204 364/31/204 177/31/204 204/41/204
f 366/40/205 365/41/205 204/41/205 78/40/205
f 364/31/206 366/40/206 78/40/206 177/31/206
f 368/22/207 367/31/207 178/31/207 163/22/207
f 369/41/208 368/22/208 163/22/208 205/41/208
f 367/31/209 369/41/209 205/41/209 178/31/209
f 371/55/210 370/22/210 164/22/210 73/55/210
f 372/41/211 371/55/211 73/55/211 35/41/211
f 370/22/212 372/41/212 35/41/212 164/22/212
f 374/38/213 373/30/213 167/30/213 199/38/213
f 375/37/214 374/38/214 199/38/214 74/37/214
f 373/30/215 375/37/215 74/37/215 167/30/215
f 377/19/216 376/30/216 168/30/216 153/19/216
f 378/38/217 377/19/217 153/19/217 200/38/217
f 376/30/218 378/38/218 200/38/218 168/30/218
f 380/34/219 379/19/219 154/19/219 69/34/219
f 381/38/220 380/34/220 69/34/220 34/38/220
f 379/19/221 381/38/221 34/38/221 154/19/221
f 383/35/222 382/29/222 157/29/222 194/35/222
f 384/34/223 383/35/223 194/35/223 70/34/223
f 382/29/224 384/34/224 70/34/224 157/29/224
f 386/16/225 385/29/225 158/29/225 143/16/225
f 387/35/226 386/16/226 143/16/226 195/35/226
f 385/29/227 387/35/227 195/35/227 158/29/227
f 389/46/228 388/16/228 144/16/228 86/46/228
f 390/35/229 389/46/229 86/46/229 33/35/229
f 388/16/230 390/35/230 33/35/230 144/16/230
f 392/32/231 391/28/231 185/28/231 189/32/231
f 393/43/232 392/32/232 189/32/232 10/43/232
f 391/28/233 393/43/233 10/43/233 185/28/233
f 395/27/234 394/28/234 31/28/234 137/27/234
f 396/32/235 395/27/235 137/27/235 190/32/235
f 394/28/236 396/32/236 190/32/236 31/28/236
f 398/23/237 397/27/237 138/27/237 61/23/237
f 399/32/238 398/23/238 61/23/238 32/32/238
f 397/27/239 399/32/239 32/32/239 138/27/239
f 401/31/240 400/25/240 175/25/240 179/31/240
f 402/40/241 401/31/241 179/31/241 9/40/241
f 400/25/242 402/40/242 9/40/242 175/25/242
f 404/24/243 403/25/243 29/25/243 132/24/243
f 405/31/244 404/24/244 132/24/244 180/31/244
f 403/25/245 405/31/245 180/31/245 29/25/245
f 407/20/246 406/24/246 133/24/246 57/20/246
f 408/31/247 407/20/247 57/20/247 30/31/247
f 406/24/248 408/31/248 30/31/248 133/24/248
f 410/60/249 409/22/249 165/22/249 169/60/249
f 411/55/250 410/60/250 169/60/250 8/55/250
f 409/22/251 411/55/251 8/55/251 165/22/251
f 413/21/252 412/22/252 27/22/252 122/21/252
f 414/60/253 413/21/253 122/21/253 170/60/253
f 412/22/254 414/60/254 170/60/254 27/22/254
f 416/61/255 415/21/255 123/21/255 53/61/255
f 417/60/256 416/61/256 53/61/256 28/60/256
f 415/21/257 417/60/257 28/60/257 123/21/257
f 419/29/258 418/19/258 155/19/258 159/29/258
f 420/34/259 419/29/259 159/29/259 7/34/259
f 418/19/260 420/34/260 7/34/260 155/19/260
f 422/18/261 421/19/261 25/19/261 102/18/261
f 423/29/262 422/18/262 102/18/262 160/29/262
f 421/19/263 423/29/263 160/29/263 25/19/263
f 425/4/264 424/18/264 103/18/264 50/4/264
f 426/29/265 425/4/265 50/4/265 26/29/265
f 424/18/266 426/29/266 26/29/266 103/18/266
f 428/33/267 427/16/267 145/16/267 149/33/267
f 429/46/268 428/33/268 149/33/268 11/46/268
f 427/16/269 429/46/269 11/46/269 145/16/269
f 431/6/270 430/16/270 23/16/270 108/6/270
f 432/33/271 431/6/271 108/6/271 150/33/271
f 430/16/272 432/33/272 150/33/272 23/16/272
f 434/26/273 433/6/273 109/6/273 65/26/273
f 435/33/274 434/26/274 65/26/274 24/33/274
f 433/6/275 435/33/275 24/33/275 109/6/275
f 437/27/276 436/15/276 112/15/276 139/27/276
f 438/26/277 437/27/277 139/27/277 66/26/277
f 436/15/278 438/26/278 66/26/278 112/15/278
f 440/14/279 439/15/279 113/15/279 128/14/279
f 441/27/280 440/14/280 128/14/280 140/27/280
f 439/15/281 441/27/281 140/27/281 113/15/281
f 443/23/282 442/14/282 129/14/282 62/23/282
f 444/27/283 443/23/283 62/23/283 22/27/283
f 442/14/284 444/27/284 22/27/284 129/14/284
f 446/24/285 445/12/285 130/12/285 134/24/285
f 447/23/286 446/24/286 134/24/286 5/23/286
f 445/12/287 447/23/287 5/23/287 130/12/287
f 449/11/288 448/12/288 20/12/288 118/11/288
f 450/24/289 449/11/289 118/11/289 135/24/289
f 448/12/290 450/24/290 135/24/290 20/12/290
f 452/20/291 451/11/291 119/11/291 58/20/291
f 453/24/292 452/20/292 58/20/292 21/24/292
f 451/11/293 453/24/293 21/24/293 119/11/293
f 455/21/294 454/9/294 120/9/294 124/21/294
f 456/20/295 455/21/295 124/21/295 4/20/295
f 454/9/296 456/20/296 4/20/296 120/9/296
f 458/8/297 457/9/297 18/9/297 93/8/297
f 459/21/298 458/8/298 93/8/298 125/21/298
f 457/9/299 459/21/299 125/21/299 18/9/299
f 461/61/300 460/8/300 94/8/300 54/61/300
f 462/21/301 461/61/301 54/61/301 19/21/301
f 460/8/302 462/21/302 19/21/302 94/8/302
f 464/62/303 463/6/303 110/6/303 114/62/303
f 465/26/304 464/62/304 114/62/304 6/26/304
f 463/6/305 465/26/305 6/26/305 110/6/305
f 467/5/306 466/6/306 16/6/306 98/5/306
f 468/62/307 467/5/307 98/5/307 115/62/307
f 466/6/308 468/62/308 115/62/308 16/6/308
f 470/63/309 469/5/309 99/5/309 1/63/309
f 471/62/310 470/63/310 1/63/310 17/62/310
f 469/5/311 471/62/311 17/62/311 99/5/311
f 473/18/312 472/3/312 95/3/312 104/18/312
f 474/17/313 473/18/313 104/18/313 3/17/313
f 472/3/314 474/17/314 3/17/314 95/3/314
f 476/2/315 475/3/315 13/3/315 100/2/315
f 477/18/316 476/2/316 100/2/316 105/18/316
f 475/3/317 477/18/317 105/18/317 13/3/317
f 479/4/318 478/2/318 14/2/318 2/4/318
f 480/18/319 479/4/319 2/4/319 15/18/319
f 478/2/320 480/18/320 15/18/320 14/2/320
